<svg id="Layer_1" data-name="Layer 1" xmlns="http://www.w3.org/2000/svg" xmlns:xlink="http://www.w3.org/1999/xlink" viewBox="0 0 380 380"><defs><style>.cls-1{fill:url(#linear-gradient);}.cls-2{fill:url(#linear-gradient-2);}.cls-3{fill:url(#linear-gradient-3);}.cls-4{fill:url(#linear-gradient-4);}.cls-5{fill:url(#linear-gradient-5);}.cls-6{fill:url(#linear-gradient-6);}.cls-7{fill:url(#linear-gradient-7);}.cls-8{fill:url(#linear-gradient-8);}.cls-9{fill:url(#linear-gradient-9);}.cls-10{fill:url(#linear-gradient-10);}.cls-11{fill:url(#linear-gradient-11);}.cls-12{fill:url(#linear-gradient-12);}.cls-13{fill:url(#linear-gradient-13);}.cls-14{fill:url(#linear-gradient-14);}.cls-15{fill:url(#linear-gradient-15);}.cls-16{fill:none;}.cls-17{fill:#0aeaf3;}</style><linearGradient id="linear-gradient" x1="189.05" y1="8.67" x2="191.05" y2="393.33" gradientUnits="userSpaceOnUse"><stop offset="0.05" stop-color="#00b1d5"/><stop offset="0.06" stop-color="#00a8cb"/><stop offset="0.16" stop-color="#00768e"/><stop offset="0.25" stop-color="#004c5b"/><stop offset="0.33" stop-color="#002b34"/><stop offset="0.41" stop-color="#001317"/><stop offset="0.48" stop-color="#000506"/><stop offset="0.53"/><stop offset="0.62" stop-color="#000203"/><stop offset="0.68" stop-color="#00090c"/><stop offset="0.73" stop-color="#00151b"/><stop offset="0.77" stop-color="#002630"/><stop offset="0.82" stop-color="#003c4c"/><stop offset="0.86" stop-color="#00576f"/><stop offset="0.9" stop-color="#007797"/><stop offset="0.93" stop-color="#009cc6"/><stop offset="0.97" stop-color="#00c5fa"/><stop offset="0.97" stop-color="#00c9ff"/></linearGradient><linearGradient id="linear-gradient-2" x1="308.72" y1="8.04" x2="310.72" y2="392.71" xlink:href="#linear-gradient"/><linearGradient id="linear-gradient-3" x1="70.98" y1="9.28" x2="72.98" y2="393.95" xlink:href="#linear-gradient"/><linearGradient id="linear-gradient-4" x1="287.34" y1="8.15" x2="289.34" y2="392.82" xlink:href="#linear-gradient"/><linearGradient id="linear-gradient-5" x1="91.29" y1="9.17" x2="93.29" y2="393.84" xlink:href="#linear-gradient"/><linearGradient id="linear-gradient-6" x1="190.54" y1="8.66" x2="192.54" y2="393.32" xlink:href="#linear-gradient"/><linearGradient id="linear-gradient-7" x1="196.92" y1="8.63" x2="198.92" y2="393.29" xlink:href="#linear-gradient"/><linearGradient id="linear-gradient-8" x1="232.61" y1="8.44" x2="234.61" y2="393.11" xlink:href="#linear-gradient"/><linearGradient id="linear-gradient-9" x1="115.23" y1="9.05" x2="117.23" y2="393.72" xlink:href="#linear-gradient"/><linearGradient id="linear-gradient-10" x1="121.31" y1="9.02" x2="123.31" y2="393.68" xlink:href="#linear-gradient"/><linearGradient id="linear-gradient-11" x1="240.64" y1="8.4" x2="242.64" y2="393.06" xlink:href="#linear-gradient"/><linearGradient id="linear-gradient-12" x1="264.31" y1="8.27" x2="266.31" y2="392.94" xlink:href="#linear-gradient"/><linearGradient id="linear-gradient-13" x1="135.94" y1="8.94" x2="137.94" y2="393.61" xlink:href="#linear-gradient"/><linearGradient id="linear-gradient-14" x1="190.28" y1="8.66" x2="192.28" y2="393.33" xlink:href="#linear-gradient"/><linearGradient id="linear-gradient-15" x1="190.75" y1="8.66" x2="192.75" y2="393.32" xlink:href="#linear-gradient"/></defs><title>Bahari Desktop Logo</title><path class="cls-1" d="M263.35,300.91C285,273.24,296.58,242,297.49,204.47c-.73-7.34-.7-17.13-2.84-26.4-5.7-24.66-16.15-46.82-35.49-64.25C240.45,97,218.92,87.13,193.83,85.94c-16.64-.79-32.56,3-47.54,10.43C105.55,116.51,80,164.69,82.86,211.1c2.33,37.77,16.23,71,42.22,98.68C131.8,316.93,140,323,148.2,328.4c11.34,7.5,24,12.18,37.88,11.79,9.13-.27,18.74-.12,27.24-2.89C233.68,330.66,250.11,317.8,263.35,300.91Zm-84.61,31.61c-1.24-1.33-3.08-2.44-3.62-4-2.42-7.06-5.75-10.1-15.86-13.56-1.09-3.92,1.87-5.18,4.33-4.54,3.85,1,8.07,2.55,10.83,5.22s4.5,6.92,5.84,10.77C180.84,328.06,179.31,330.46,178.74,332.52Zm47.56-18.36a30.19,30.19,0,0,1-4.61,1.42c-8.21,1.24-12.78,6.2-15.08,13.91-.36,1.24-2.12,2.07-3.23,3.09-.76-1.16-2.1-2.28-2.18-3.49-.64-8.79,9.47-19.56,17.92-19,2.57.18,5,1.58,7.57,2.43Zm3.77-7.25c-20.5-7.17-41.9-6.73-63-1.91-5.45,1.25-10.46,4.85-15.4,7.82-3.5,2.1-6.53,3.31-9.72-.18a1.83,1.83,0,0,0-.84-.53C126.54,308.3,121,295,113.59,284.33c-6.09-8.83-9.6-19.44-14.26-29.27a1.08,1.08,0,0,1-.17-.46c.4-9-6.14-16.07-6.9-24.74-.78-8.9-2.42-17.85-2-26.69.41-8.45,3-16.8,4.65-25.19.1-.48.11-1.2.43-1.4,7.52-4.72,5.74-13.05,7.55-19.9,1.31-4.92,2.79-9.34,6.75-12.93a11,11,0,0,0,3.25-6.86c.34-6.86,4.13-11.52,8.74-15.83,10-9.35,21.88-15.8,34-22,7.73-4,15.78-5.6,24.29-6,4.44-.22,8.87-.7,13.3-1.06.13-.37.25-.75.37-1.12,8.7,2.24,17.49,4.18,26.07,6.78,19.06,5.78,33.2,19,46.57,32.74a66.88,66.88,0,0,1,17,29.15c2.2,8.12,4.4,16.27,6.08,24.51.76,3.67,1.22,7.91.09,11.33a31.14,31.14,0,0,0-.56,16.65c2.14,10.3-.52,20.29-3.56,29.77A267.7,267.7,0,0,1,270,279.45c-3.95,7.89-9.2,15.94-15.92,21.39C247.8,305.88,240.4,310.53,230.07,306.91Z"/><path class="cls-2" d="M371.39,72.22c-1.59-5.75-4.5-11.13-6.82-16.68l-1.15.48c-1.25,5.23-2.17,10.57-3.81,15.67-6.72,20.82-24.28,30.38-45,23.33-10.4-3.55-19.95-9.58-29.92-14.42-2.18-1.06-4.76-3-6.68-2.55a230.91,230.91,0,0,0-26,7.73c-3.58,1.33-6.4,4.68-9.79,7.28a20,20,0,0,0,2,1.73c22.74,13.27,38.62,32.7,49.59,56.25,2.77,5.93,6.75,8.37,12.72,8.08,17.52-.86,34-5.06,48.76-15.09a45.26,45.26,0,0,0,19-27.11C378.19,101.69,375.46,86.86,371.39,72.22Zm-45.63,36c1.74-2.21,6.79-1.81,10.33-2.59l1.39,1.33c-6.8,9.35-8.14,18,2.33,24.87-4.13,4.82-6.52,5-10.47,1.3C324.16,128.26,321.4,113.77,325.76,108.24Zm-10.71,8.14c.54,3.64.75,7.36,1.72,10.87s2.72,6.95,4.33,10.91c-4.1.75-7.75,1.58-11.45,2-.92.1-2.38-1-2.92-1.9-2-3.41-3.72-7-5.39-10.2Zm-5-12.57c-11.51,1.14-31.77-2.57-34.94-6.22C285.39,91.86,299.6,94.25,310,103.81Zm52.77,20.33c-8.57,14.73-21.59,22.68-37.94,25.58-6.5,1.15-13.16,1.39-19.73,2.12-3.73.41-5.63-1.32-7.22-4.64-3.94-8.19-7.32-16.95-12.81-24-7-9-15.75-16.5-23.81-24.59-2-2-4.13-3.77-6.2-5.64l.06-1.83,20-6.11c.33.77.65,1.55,1,2.33l-15.44,5.82c11.06,7.75,19.8,17.58,34,17,3.1-.12,6.56-.1,7,3.84.43,4.33-3.46,4.78-6.49,5.29a18.91,18.91,0,0,1-5-.23c3.39,7.77,7.07,15.66,10.26,23.74,1.29,3.29,2.19,5.33,6.49,4.5,9.06-1.76,18.43-2.17,27.31-4.49,9.77-2.56,17.15-9.08,23.15-18.78l-6.11,2.84a8,8,0,0,1-9.63-1.59c-3-2.88-4.75-6.53-2.49-10.26,1.82-3,4.5-6.15,7.57-7.59,3.34-1.57,6.19,1.29,6.81,4.7.52,2.87-1.05,5.16-4.24,5.8-.42-.85-.68-1.14-.69-1.43-.06-1.72-.07-3.44-.09-5.16-1.67,1-4.34,1.69-4.8,3.09-.74,2.23-.92,5.78.38,7.21,1.16,1.27,5.39,1.43,6.94.29a21.13,21.13,0,0,0,7-8.6c2.56-6.61,4.08-13.62,6-20.48.21-.77.32-2.22,0-2.38-4-2-1.26-4.6-.68-6.94.47-1.88,1.15-3.7,1.73-5.56l1.45-.22c.61,2.45,1.35,4.88,1.81,7.36C370.72,98.72,370,111.79,362.78,124.14Z"/><path class="cls-3" d="M85,153.49a126.15,126.15,0,0,1,35.57-47.85c5.16-4.36,10.81-8.14,16.59-12.45a40.76,40.76,0,0,0-3.66-3.79c-7.6-6.08-16.58-8.7-25.94-10.72-4.94-1.06-8.28.82-12.3,3-9.16,5-18.39,10.18-28.21,13.45-20.28,6.77-37.59-2.4-44.55-22.68-1.82-5.29-2.74-10.88-4.47-18-2.49,5.35-5.14,9.33-6.21,13.69C9.38,77.94,6.85,87.83,6,97.82c-1.61,18.94,4.48,35,20.67,46.34,13,9.16,28,12.65,43.31,14.89C75.63,159.87,82,160.48,85,153.49Zm21.45-56c-2,3.65-23.2,7.67-34.17,5.72C83.16,98.39,93.15,88.11,106.42,97.49ZM67.55,117.2l12.93,10.71c-1.7,3.34-3.64,7.31-5.79,11.17a2.89,2.89,0,0,1-2.39,1.16c-3.72-.54-7.4-1.32-10.86-2Zm-9.85-2.33c.24,6.18.41,12.39-4.31,17.38-4.16,4.39-5.89,4.52-11.82,0,10.77-7.11,9.63-15.82,3.15-24.85C54,104.24,57.37,106.32,57.7,114.87ZM12.75,94.39c.82-4.06.86-8.27,1.44-12.38a6.22,6.22,0,0,1,2.65-4.1c1,3.09,2.08,6.17,3,9.3a4.59,4.59,0,0,1-.17,2.28c-.4,1.52-1.6,3.18-1.28,4.49,1.59,6.6,3,13.33,5.63,19.54,1.49,3.56,4.72,6.78,7.94,9.07,2.4,1.72,5.93,1.36,7.16-2.62,1-3.31-1.18-8.42-4-8.63-.91-.07-2.31,1.61-2.83,2.78-.3.68.71,1.94,1.14,2.94l-1.64,1.26c-1.18-1.66-3.24-3.29-3.3-5a6.66,6.66,0,0,1,2.92-5.19,8.15,8.15,0,0,1,6.44.13c5.16,2.6,7.24,10,4.6,14.65-2.79,4.92-7.93,6.06-13.86,3.06-1-.49-1.9-1-3.31-1.75,7.26,15.27,23,21.87,54.22,23.13l11.39-27.6c-2.21-.32-4.68-.13-6.52-1.11s-2.84-3.08-4.22-4.7c1.71-1.25,3.44-3.61,5.11-3.58,13.83.31,23.19-7.56,33.05-17.21l-13-5.24.44-1.28c6.86-.92,12.63,2.44,19.72,5.56-2.1,2.55-3.54,4.88-5.52,6.58-9,7.76-19.45,14.23-25.66,24.76-3.42,5.81-5.68,12.32-8.33,18.57-4.75,11.23-2.6,10.16-15.23,9.55-11.62-.57-23-3.06-33.42-8.84C20.72,133.61,9.53,110.39,12.75,94.39Z"/><path class="cls-4" d="M276.09,298.84C265.5,309,255.74,318.68,245.67,328c-3.63,3.36-3.88,4.36-.75,8.38,9.79,12.53,23.6,17.82,38.22,21.85,13.87,3.82,26.61,1.71,38.14-6.93a39.71,39.71,0,0,0,14-18.41C304,339.89,288.51,320.85,276.09,298.84Zm13,46.49-5-5.51c1.23-.93,2.88-2.88,3.63-2.59,2.36.95,4.4,2.74,6.56,4.2Zm-4.66-15c-2.1,1.57-3.58,3.52-4.94,3.45s-2.93-2-4.38-3.15l5.38-6.16c-1.4-1.66-3.53-4.16-5.69-6.7L254.52,335.3l13,8.49c.32-.37.65-.73,1-1.09a37.24,37.24,0,0,1-2.38-5.44,6.42,6.42,0,0,1,.15-4.36,6.59,6.59,0,0,1,3.65-2.56c.69-.21,2.65,1.21,2.59,1.41a52.87,52.87,0,0,1-2.7,5.91c2.11,4.23,7,5.83,11.72,7.8,1.47.61,2.65,1.9,4,2.87-1.59.55-3.2,1.64-4.77,1.57-11.39-.52-21.38-4.23-29-13.21-2.06-2.42-1.94-3.82.69-5.51,8.14-5.23,15.87-10.94,20.49-19.73l23.82,22.83ZM298,350.07l5.15-12.28,20.29,2.68C320.29,346.73,304.76,352.15,298,350.07Z"/><path class="cls-5" d="M136.76,329.07c-4.07-3.34-8.3-6.56-11.88-10.37-6.53-6.94-12.64-14.27-18.85-21.36C80.59,339,73.34,334.23,47,334a11,11,0,0,0,.5,1.88C54.28,350.43,72,361.79,87.94,360c19-2.19,36.56-8.32,49.35-24C139.65,333.15,139.49,331.32,136.76,329.07ZM58.11,340.5C62,340,65.5,339.65,69,339.16s7.14-1.1,11.79-1.83c-2.63,5.52.56,8.91,4.15,12.14C78.1,352.41,62.42,347.26,58.11,340.5Zm29.32,1.12c2.49-3.91,7.11-6.12,9.15-4,.86.88.93,3.54.23,4.71C95.33,344.78,90,344.18,87.43,341.62Zm43.16-5.76c-7.89,10-18.63,14-31,14-1.09,0-2.19-1-3.29-1.51,1-.85,1.86-2.05,3-2.49,8.22-3.17,10-4.36,12.87-9a7,7,0,0,1-1.12-1.34c-.64-1.35-1.15-2.76-1.72-4.14,1-.39,2.29-1.36,3-1,1.32.59,3.28,2,3.24,2.94-.11,3.13-1,6.23-1.87,10.74l13.75-8.57-20.33-17.66c-2,2.26-4.24,4.79-5.85,6.61l5.42,6.5c-1.54,1.06-3,2.79-4.62,2.93-1.16.1-2.5-1.94-4.5-3.67l-11.47,4.08-.2-.75,22.93-21.9c4.88,8.76,12.94,14.68,21.36,20.27C130.91,332.36,131.21,335.07,130.59,335.86Z"/><path class="cls-6" d="M166.38,81.65c7.76,1.44,15.79,1.49,23.7,2.16,0-.21,0-.42,0-.63,4.33,0,8.73.5,13-.13,6-.88,12.07-2,17.59-4.25,2.92-1.2,6.29-4.87,6.72-7.82.9-6.28,1.2-13.13-.34-19.21-5.87-23.12-37.66-39.66-62.66-16.48-8.76,8.12-11.57,18.5-10.81,30.34C154.24,75.56,156.62,79.84,166.38,81.65Zm13.7-48.5c11.92-6.57,25.77-2,33.36,11.4,2.62,4.64,3.87,10.09,5.49,15.26.35,1.12-.39,2.58-.63,3.89-1-.88-2.53-1.56-3-2.66-1.38-3.56-4.32-3.68-7-3-1.72.42-3.07,2.36-4.89,3.87,1.42.82,1.71,1.14,2,1.11,1.87-.19,5.16-1.06,5.36-.59,1,2.44,2.17,5.44,1.55,7.8-.49,1.84-3.28,3.8-5.39,4.33a47.58,47.58,0,0,1-11.86,1.17c-6.47-.06-12.94-.44-19.38-1-5.59-.45-8.35-5.38-6.28-10.56,1.84-4.62,4.89-1.9,7.66-1l1-1.56c-1.41-1.24-2.63-3.13-4.26-3.62-5.06-1.5-7.53,1.92-9.33,7.35-1.2-2.07-2.22-3-2.11-3.78C164.12,49.52,169,39.29,180.08,33.15Z"/><path class="cls-7" d="M243.21,247.76c6.12-10.51,4.56-22.51,6.75-33.78,1.69-8.77-3.41-15.36-8.21-22-5.74-7.93-13.8-12.12-22.81-14.94-4.56-1.43-9.24-2.55-13.7-4.24-3.09-1.17-4.58-3.3-2.74-7a75.24,75.24,0,0,0,4.59-12c4-13.22-5.15-28.89-18.57-32.11-8.75-2.1-17-.1-25.21,3-8.46,3.19-13.41,9.23-14.12,18.08-1.31,16.35-2.15,32.74-3.11,49.12-.22,3.76-.17,7.54-.17,11.32,0,14.08-.48,28.18.18,42.23.92,19.35,2.71,38.67,4.21,59.19,4.1-2,7.48-3.68,10.88-5.29,5.68-2.69,11.18-6,17.12-7.89,18.19-5.78,36.32-10.89,51-24.68C235.36,261,239.23,254.61,243.21,247.76Z"/><path class="cls-8" d="M212,126.72c.32.38.74.69,1,1.1,5.44,8,11.35,15.74,6.25,26.39-2,4.22,4.12,11.14,8.84,10.6,5-.57,10-1,13.37-1.36,10.25,2.65,12.83-5,17.52-9.21.43-.39-.13-2.09-.46-3.1-1.49-4.59-3.11-9.13-4.57-13.73s-1.56-10.43-4.49-13.7c-4.7-5.22-11.28-8.73-17-13.06s-10.5-4.71-17.43-.34C205.18,116.57,205.51,119.06,212,126.72Z"/><path class="cls-9" d="M111.56,239.33c4.4-2.45,5.93-10.07,3.26-16.17s.27-11.74,6.94-13c1.78-.34,3.58-.6,5.31-1.11,4.82-1.44,8.92-7.55,7.44-11.82-2.19-6.31-2.77-12.13.75-18.35,2.19-3.84-1.93-9.33-7.74-9.15-1.82.5-5.18,1.31-8.46,2.34-9.09,2.82-18.57,5.21-18.69,17.66,0,1.89-1.3,3.74-1.7,5.67-1.3,6.3-4.12,12.44,0,19,1.23,2,0,5.4.19,8.16a93.2,93.2,0,0,0,1.09,12.85C100.48,238.25,109,240.79,111.56,239.33Z"/><path class="cls-10" d="M135.29,230.43c.65-4.27-.75-9-1.78-13.33-.74-3.13-2.9-2.67-4.74-.64-2.76,3.07-5.52,6.14-8.11,9.35A4.22,4.22,0,0,0,120,229c2.2,8.82-3.06,14.39-9.15,18.63-4.52,3.15-4.78,7-3.16,10.55,6.85,15.22,14.24,30.19,25.13,44.3,2-3.18,4.87-5.68,5.06-8.36.82-11.5,1.77-23.09-2-34.36C132.49,250,133.78,240.32,135.29,230.43Z"/><path class="cls-11" d="M281.39,235.24c-3.69.19-7.14.93-10.39.4-6-1-9.52,2.52-8.28,8.45.4,2,.14,5-1.11,6.18-5.32,4.84-6.3,11.36-7.79,17.7-.73,3.12-1.79,5.23-5.27,6.21-4.27,1.2-8.27,3.3-12.41,5-9.44,3.79-18.9,7.52-28.32,11.37a48.26,48.26,0,0,0-5.27,2.89c0,.61,0,1.22.08,1.84a58.71,58.71,0,0,0,7,1.88c7.32,1,14.66,2.18,22,2.67,6.79.45,14.21,1.44,18.95-5.21,7.35-10.3,14.37-20.85,21.45-31.35C278,254.53,279.62,244.49,281.39,235.24Z"/><path class="cls-12" d="M268,158.06c-1.25,6.37-8.48,11.45-15.13,11.78-1.93.1-3.87,0-7.25,0,1.38,2.89,2,5,3.23,6.59,2.08,2.58,4.62,4.78,7,7.16,6.26,6.36,10.76,13.35,9,22.95-.48,2.55-.93,5.72.14,7.82,2.24,4.43,5.47,8.36,8.39,12.43.23.32,1.37.32,1.86.06,3.29-1.78,6.53-3.66,9.77-5.51-1.13-2.72-2.57-4.66-2.66-6.66-.41-9-2.51-17.92.58-27.15,1.32-4-.77-9.22-1.86-13.75-.86-3.55-3.45-6.82-3.74-10.34-.89-10.71-7.69-17.84-14-25.34-.11-.12-.61.09-1.07.16-3,4.84.23,8.23,2.67,12C266.35,152.64,268.47,155.74,268,158.06Z"/><path class="cls-13" d="M167.92,112.47c-3.7-3.15-6.08-5.49-8.8-7.32a5.54,5.54,0,0,0-4.35-.28c-1.82.65-3.38,2-5,3.11-10.26,6.76-21,13-28,23.57-.94,1.42-1.3,3.22-2,4.83-1.62,3.86-2.94,7.9-5,11.54-2.73,4.88-6,9.45-9.49,14.8,10.53,4.72,18.32,2.23,25.57-3.1a6.15,6.15,0,0,0,2-3.55c1.45-7.42,2.72-14.87,4-22.31s13-17.24,20.48-17.91C160.72,115.55,163.9,113.82,167.92,112.47Z"/><path class="cls-14" d="M191.59,115.34a2.79,2.79,0,0,0,2.28-.07c6.73-4,13.4-8.08,21-12.69-16.54-3.77-32.24-5.24-48.16-.93.1.71,0,1.23.2,1.31C175.1,107.12,183.33,111.27,191.59,115.34Z"/><path class="cls-15" d="M181.39,60.69c.43,3.26-.41,5.42-4,6.2-1.25.28-2.25,1.72-3.37,2.63,1.25.56,2.48,1.6,3.73,1.62,8.77.15,17.54.17,26.31,0,1.26,0,2.5-1.35,3.75-2.07-1.08-.76-2.08-2-3.26-2.19-3.63-.67-4.56-2.81-4.13-6.11.86-6.56,4.86-10.28,12.11-12.08L203,36.61,190.94,56.49l-12.31-20-9.22,12.16C176.47,50.44,180.52,54.11,181.39,60.69Z"/><rect class="cls-16" width="380" height="380"/><path class="cls-17" d="M164.69,301.14c11.45-14,28-21.06,42.54-30.9s28.83-20,32-38.86a70.09,70.09,0,0,0,.33-22.2c-2.17-13.61-12.33-20.55-24.62-24-6.79-1.88-14.13-1.79-21.24-2.43-2.75-.24-5.54,0-9.34,0,1.8-4.91,3.31-8.88,4.72-12.88,1.82-5.15,4.08-10.22,5.25-15.52,3-13.75-7-23.63-20.66-19.92-14.44,3.93-15.42,7.33-16,19.57-1.18,26.59-3.25,53.14-4.46,79.73-.76,16.78-.55,33.61-1,50.41A134.22,134.22,0,0,1,150.82,301c-.28,1.86-2.28,3.46-3.49,5.18l-1.85-.72c-.35-2.22-.86-4.43-1-6.66C140.87,253,140,207,140,161.05c0-7.31-.1-14.63.31-21.92.14-2.48,1-5.92,2.79-7.11,6.55-4.4,13.24-9.05,20.56-11.71,8.67-3.15,17.86-4.8,27.34-1.37,11.47,4.16,20,11.76,22.85,23.11,1.48,5.86-1.56,13.3-3.91,19.52-1.81,4.81-2.23,5.46,3.14,6,15.84,1.56,29.6,7.64,40.44,19.46,6.07,6.61,7.35,15.27,8.05,23.71,1.62,19.51-2.44,37.65-16.34,52.18a78,78,0,0,1-31.39,19.83c-14,4.8-28.05,9.56-42,14.51C169.28,298.17,167,299.87,164.69,301.14Z"/></svg>