<?xml version="1.0" encoding="utf-8"?>
<!-- Generator: Adobe Illustrator 22.1.0, SVG Export Plug-In . SVG Version: 6.00 Build 0)  -->
<svg version="1.1" id="Layer_1" xmlns="http://www.w3.org/2000/svg" xmlns:xlink="http://www.w3.org/1999/xlink" x="0px" y="0px"
	 viewBox="0 0 64 64" style="enable-background:new 0 0 64 64;" xml:space="preserve">
<style type="text/css">
	.st0{fill:#FEFEFE;}
	.st1{fill:#000800;}
	.st2{fill:#828682;}
	.st3{fill:#B6B8B6;}
	.st4{fill:#B2B2B2;}
	.st5{fill:#DBDCDB;}
	.st6{fill:#272727;}
	.st7{fill:#D2D2D2;}
	.st8{fill:#7E9B69;}
	.st9{fill:#A6BC94;}
	.st10{fill:#2B5319;}
	.st11{fill:#E7EDE3;}
</style>
<g>
	<path class="st0" d="M2,31.5C2,21.4,2,11.4,2,1.3C2,1.1,2.1,1,2.3,1c20.2,0,40.3,0,60.5,0c0.2,0,0.3,0.1,0.3,0.3
		c0,20.2,0,40.3,0,60.5c0,0.2-0.1,0.3-0.3,0.3c-20.2,0-40.3,0-60.5,0C2.1,62.1,2,62,2,61.8C2,51.7,2,41.6,2,31.5z M16.9,10.7
		c0,0.2,0,0.3,0.2,0.2c0.1,0,0.2,0,0.2,0c0,0.1,0,0.2,0,0.2c0,0.6,0,1.2,0,1.8c-0.4,0-0.9,0-1.3,0c-0.3,0-0.5,0.2-0.5,0.5
		c0,0.8,0,1.5,0,2.3c-0.6,0-1.1,0-1.7,0c-0.2,0-0.2,0-0.2,0.2c0,0.6,0,1.3,0,1.9c-0.4,0-0.8,0-1.2,0c-0.4,0-0.4,0-0.4,0.4
		c0,4.8,0,9.6,0,14.4c0,0.2,0,0.3-0.3,0.3c-0.6,0-1.3,0-1.9,0c-0.2,0-0.3,0-0.3,0.3c0,3,0,5.9,0,8.9c0,0.3,0.1,0.3,0.3,0.3
		c3.8,0,7.5,0,11.3,0c0.2,0,0.3,0,0.3,0.3c0,0.7,0,1.5,0,2.2c0,0.2,0,0.3-0.2,0.2c-0.5,0-0.9,0-1.4,0c-0.2,0-0.2,0-0.2,0.2
		c0,1.8,0,3.5,0,5.3c0,0.2,0,0.2,0.2,0.2c0.5,0,1,0,1.4,0c0.2,0,0.2,0,0.2,0.2c0,0.5,0,1.1,0,1.6c0,0.2,0,0.2,0.2,0.2
		c0.5,0,0.9,0,1.4,0c0.2,0,0.3,0,0.3,0.3c0,1.4,0,2.8,0,4.3c0,0.2,0,0.2,0.2,0.2c0.6,0,1.2,0,1.8,0c0.2,0,0.2,0,0.2,0.2
		c0,0.5,0,1,0,1.4c0,0.2,0,0.2,0.2,0.2c0.5,0,1.1,0,1.6,0c4.5,0,9.1,0,13.6,0c0.2,0,0.3,0,0.3-0.3c0-0.5,0-0.9,0-1.4
		c0-0.2,0-0.2,0.2-0.2c0.6,0,1.2,0,1.8,0c0.2,0,0.3-0.1,0.3-0.3c0-1.4,0-2.8,0-4.3c0-0.2,0.1-0.2,0.2-0.2c0.5,0,0.9,0,1.4,0
		c0.2,0,0.2,0,0.2-0.2c0-0.5,0-1.1,0-1.6c0-0.2,0-0.2,0.2-0.2c0.5,0,1,0,1.4,0c0.2,0,0.2-0.1,0.2-0.2c0-1.8,0-3.5,0-5.3
		c0-0.2-0.1-0.2-0.2-0.2c-0.5,0-1,0-1.4,0c-0.2,0-0.2-0.1-0.2-0.2c0-0.7,0-1.5,0-2.2c0-0.3,0.1-0.3,0.3-0.3c3.8,0,7.5,0,11.3,0
		c0.1,0,0.3,0,0.3-0.2c0-3,0-5.9,0-8.9c0-0.2-0.1-0.2-0.2-0.2c-0.7,0-1.3,0-2,0c-0.3,0-0.3-0.1-0.3-0.3c0-4.9,0-9.7,0-14.6
		c0-0.1,0-0.1,0-0.2c0-0.1,0-0.2-0.2-0.2c-0.5,0-1,0-1.4,0c0-0.6,0-1.3,0-1.9c0-0.2,0-0.2-0.2-0.2c-0.6,0-1.1,0-1.7,0
		c0-0.8,0-1.5,0-2.3c0-0.3-0.2-0.5-0.5-0.5c-0.4,0-0.9,0-1.3,0c0-0.6,0-1.2,0-1.8c0-0.1,0-0.2,0-0.2c0.1,0,0.2,0,0.2,0
		c0.2,0,0.3,0,0.2-0.2c0-0.2,0-0.3-0.2-0.2c-0.2,0-0.3,0-0.2,0.2c0,0.1,0,0.2,0,0.3c-0.8,0-1.5,0-2.3,0c0-0.5,0-1.1,0-1.6
		c0-0.2,0-0.3-0.2-0.3c-0.5,0-0.9,0-1.4,0c-0.2,0-0.3,0-0.5,0c-0.5,0-0.9,0-1.4,0c-0.2,0-0.2,0-0.2-0.2c0-0.4,0-0.8,0-1.2
		c0-0.2-0.1-0.3-0.3-0.3c-1.2,0-2.3,0-3.5,0c-0.3,0-0.3-0.1-0.3-0.3c0-0.5,0-1,0-1.5c0-0.2,0-0.3-0.2-0.3c-1.2,0-2.4,0-3.6,0
		c-0.1,0-0.3,0-0.4,0c-0.5,0-1.1,0-1.6,0c-0.1,0-0.2,0-0.2,0c-0.5,0-1.1,0-1.6,0c-0.1,0-0.3,0-0.4,0c-1.2,0-2.4,0-3.6,0
		c-0.2,0-0.2,0.1-0.2,0.3c0,0.5,0,1,0,1.5c0,0.3,0,0.4-0.3,0.3c-1.2,0-2.3,0-3.5,0c-0.3,0-0.3,0.1-0.3,0.3c0,0.4,0,0.8,0,1.2
		c0,0.2-0.1,0.2-0.2,0.2c-0.5,0-0.9,0-1.4,0c-0.2,0-0.3,0-0.5,0c-0.5,0-0.9,0-1.4,0c-0.2,0-0.3,0.1-0.2,0.3c0,0.5,0,1.1,0,1.6
		c-0.8,0-1.5,0-2.3,0c0-0.1,0-0.2,0-0.3c0-0.2-0.1-0.2-0.2-0.2C17,10.4,16.9,10.5,16.9,10.7z"/>
	<path class="st1" d="M53.2,17.8c0.5,0,1,0,1.4,0c0.1,0,0.2,0,0.2,0.2c0,0.1,0,0.1,0,0.2c0,4.9,0,9.7,0,14.6c0,0.2,0,0.3,0.3,0.3
		c0.7,0,1.3,0,2,0c0.2,0,0.2,0,0.2,0.2c0,3,0,5.9,0,8.9c0,0.2-0.1,0.2-0.3,0.2c-3.8,0-7.5,0-11.3,0c-0.3,0-0.3,0.1-0.3,0.3
		c0,0.7,0,1.5,0,2.2c0,0.2,0,0.2,0.2,0.2c0.5,0,1,0,1.4,0c0.2,0,0.2,0,0.2,0.2c0,1.8,0,3.5,0,5.3c0,0.2,0,0.2-0.2,0.2
		c-0.5,0-1,0-1.4,0c-0.2,0-0.2,0-0.2,0.2c0,0.5,0,1.1,0,1.6c0,0.2,0,0.2-0.2,0.2c-0.5,0-0.9,0-1.4,0c-0.2,0-0.2,0-0.2,0.2
		c0,1.4,0,2.8,0,4.3c0,0.2,0,0.3-0.3,0.3c-0.6,0-1.2,0-1.8,0c-0.2,0-0.2,0-0.2,0.2c0,0.5,0,0.9,0,1.4c0,0.2-0.1,0.3-0.3,0.3
		c-4.5,0-9.1,0-13.6,0c-0.5,0-1.1,0-1.6,0c-0.2,0-0.2,0-0.2-0.2c0-0.5,0-1,0-1.4c0-0.2,0-0.2-0.2-0.2c-0.6,0-1.2,0-1.8,0
		c-0.2,0-0.2-0.1-0.2-0.2c0-1.4,0-2.8,0-4.3c0-0.2-0.1-0.3-0.3-0.3c-0.5,0-0.9,0-1.4,0c-0.2,0-0.2,0-0.2-0.2c0-0.5,0-1.1,0-1.6
		c0-0.2-0.1-0.2-0.2-0.2c-0.5,0-1,0-1.4,0c-0.2,0-0.2-0.1-0.2-0.2c0-1.8,0-3.5,0-5.3c0-0.2,0.1-0.2,0.2-0.2c0.5,0,0.9,0,1.4,0
		c0.2,0,0.2-0.1,0.2-0.2c0-0.7,0-1.5,0-2.2c0-0.2-0.1-0.3-0.3-0.3c-3.8,0-7.5,0-11.3,0c-0.3,0-0.3-0.1-0.3-0.3c0-3,0-5.9,0-8.9
		c0-0.3,0.1-0.3,0.3-0.3c0.6,0,1.3,0,1.9,0c0.2,0,0.3-0.1,0.3-0.3c0-4.8,0-9.6,0-14.4c0-0.4,0-0.4,0.4-0.4c0.4,0,0.8,0,1.2,0l0,0
		c0,5.6,0,11.2,0,16.8c0,0.2-0.1,0.3-0.3,0.3c-0.9,0-1.8,0-2.7,0c-0.2,0-0.2,0-0.2,0.2c0,0.5,0,1.1,0,1.6c0,1.2,0,2.5,0,3.7
		c0,0.2,0.1,0.2,0.2,0.2c1,0,2,0,3,0c1.9,0,3.8,0,5.7,0c0.2,0,0.3-0.1,0.3-0.3c0-0.6,0-1.2,0-1.8c0.5,0,1,0,1.5,0
		c0.2,0,0.3,0,0.3,0.3c0,0.5,0,1,0,1.5c0,0.2,0.1,0.3,0.3,0.3c0.5,0,0.9,0,1.4,0c0.2,0,0.2,0,0.2,0.2c0,0.4,0,0.9,0,1.3
		c0,0.2,0,0.3,0.3,0.3c0.6,0,1.2,0,1.8,0c0.2,0,0.2,0,0.2,0.2c0,1.5,0,3.1,0,4.6c-0.8,0-1.5,0-2.3,0c-0.5,0-1.1,0-1.6,0
		c-0.2,0-0.2,0-0.2,0.2c0,0.5,0,0.9,0,1.4c0,0.2,0.1,0.2,0.2,0.2c0.5,0,1.1,0,1.6,0c0,0.5,0,1,0,1.5c0,0.3,0.1,0.4,0.4,0.4
		c0.6,0,1.3,0,1.9,0c0,0,0,0,0,0c0,0.7,0,1.3,0,2c0,0.8,0,1.7,0,2.5c0,0.2,0.1,0.3,0.3,0.3c0.5,0,1,0,1.6,0c0,0,0,0,0,0
		c0,0.6,0,1.2,0,1.8c0,0.2,0.1,0.3,0.3,0.3c0.5,0,1,0,1.5,0c2.8,0,5.6,0,8.4,0c0.5,0,1,0,1.5,0c0.2,0,0.3-0.1,0.3-0.3
		c0-0.6,0-1.2,0-1.8c0,0,0,0,0,0c0.5,0,1,0,1.6,0c0.2,0,0.3,0,0.3-0.3c0-0.8,0-1.7,0-2.5c0-0.7,0-1.3,0-2l0,0c0.6,0,1.3,0,1.9,0
		c0.3,0,0.4-0.1,0.4-0.4c0-0.5,0-1,0-1.5c0.5,0,1.1,0,1.6,0c0.1,0,0.2,0,0.2-0.2c0-0.5,0-0.9,0-1.4c0-0.2-0.1-0.2-0.2-0.2
		c-0.5,0-1.1,0-1.6,0c-0.8,0-1.5,0-2.3,0c0-1.5,0-3.1,0-4.6c0-0.2,0.1-0.2,0.2-0.2c0.6,0,1.2,0,1.8,0c0.2,0,0.3-0.1,0.3-0.3
		c0-0.4,0-0.9,0-1.3c0-0.2,0-0.2,0.2-0.2c0.5,0,0.9,0,1.4,0c0.2,0,0.3,0,0.3-0.3c0-0.5,0-1,0-1.5c0-0.3,0-0.4,0.4-0.4
		c0.5,0,1,0,1.5,0c0,0.6,0,1.2,0,1.8c0,0.2,0.1,0.3,0.3,0.3c1.9,0,3.8,0,5.7,0c1,0,2,0,3,0c0.1,0,0.2,0,0.2-0.2c0-1.2,0-2.5,0-3.7
		c0-0.5,0-1.1,0-1.6c0-0.2-0.1-0.2-0.3-0.2c-0.9,0-1.8,0-2.7,0c-0.2,0-0.3,0-0.3-0.3C53.2,28.9,53.2,23.3,53.2,17.8L53.2,17.8z"/>
	<path class="st1" d="M15.6,15.7c0-0.8,0-1.5,0-2.3c0-0.3,0.2-0.5,0.5-0.5c0.4,0,0.9,0,1.3,0l0,0c0,0.8,0,1.7,0,2.5
		c0,0.2,0,0.2-0.2,0.2C16.7,15.7,16.1,15.7,15.6,15.7L15.6,15.7z"/>
	<path class="st1" d="M49.6,12.9c0.4,0,0.9,0,1.3,0c0.3,0,0.5,0.2,0.5,0.5c0,0.8,0,1.5,0,2.3l0,0c-0.5,0-1,0-1.5,0
		c-0.2,0-0.2-0.1-0.2-0.2C49.6,14.6,49.6,13.8,49.6,12.9L49.6,12.9z"/>
	<path class="st1" d="M17.4,12.9c0-0.6,0-1.2,0-1.8c0.8,0,1.5,0,2.3,0c0,0.5,0,1,0,1.5c0,0.2-0.1,0.2-0.3,0.2
		C18.7,12.9,18.1,12.9,17.4,12.9L17.4,12.9z"/>
	<path class="st1" d="M49.6,11.1c0,0.6,0,1.2,0,1.8c0,0,0,0,0,0c-0.7,0-1.4,0-2,0c-0.2,0-0.2,0-0.2-0.2c0-0.5,0-1,0-1.6
		C48.1,11.1,48.8,11.1,49.6,11.1z"/>
	<path class="st1" d="M51.3,15.7c0.6,0,1.1,0,1.7,0c0.2,0,0.2,0,0.2,0.2c0,0.6,0,1.3,0,1.9l0,0c-0.5,0-1.1,0-1.6,0
		c-0.2,0-0.2,0-0.2-0.2C51.4,16.9,51.4,16.3,51.3,15.7C51.4,15.7,51.3,15.7,51.3,15.7z"/>
	<path class="st1" d="M13.8,17.8c0-0.6,0-1.3,0-1.9c0-0.2,0-0.2,0.2-0.2c0.6,0,1.1,0,1.7,0c0,0,0,0,0,0c0,0.6,0,1.3,0,1.9
		c0,0.2,0,0.2-0.2,0.2C14.8,17.7,14.3,17.7,13.8,17.8L13.8,17.8z"/>
	<path class="st2" d="M21.8,9.1c0.5,0,0.9,0,1.4,0c0.2,0,0.2,0,0.2-0.2c0-0.4,0-0.8,0-1.2c0-0.2,0.1-0.3,0.3-0.3c1.2,0,2.3,0,3.5,0
		c0.3,0,0.3-0.1,0.3-0.3c0-0.5,0-1,0-1.5c0-0.2,0-0.3,0.2-0.3c1.2,0,2.4,0,3.6,0c0,0.1,0,0.2,0,0.2c-1.1,0-2.3,0-3.4,0
		c-0.2,0-0.3,0-0.3,0.3c0,0.5,0,1,0,1.6c-0.1,0.1-0.1,0.1-0.2,0.2c-1.2,0-2.5,0-3.7,0c-0.2,0-0.3,0-0.3,0.2c0,0.5,0,0.9,0,1.4
		c-0.1,0.1-0.1,0.2-0.2,0.2c-0.5,0-1.1,0-1.6,0C21.7,9.2,21.7,9.1,21.8,9.1z"/>
	<path class="st2" d="M35.6,5.2c1.2,0,2.4,0,3.6,0c0.2,0,0.2,0.1,0.2,0.3c0,0.5,0,1,0,1.5c0,0.3,0,0.4,0.3,0.3c1.2,0,2.3,0,3.5,0
		c0.3,0,0.3,0.1,0.3,0.3c0,0.4,0,0.8,0,1.2c0,0.2,0.1,0.2,0.2,0.2c0.5,0,0.9,0,1.4,0c0,0.1,0,0.1,0,0.2c-0.5,0-1.1,0-1.6,0
		c-0.1-0.1-0.1-0.2-0.2-0.2c0-0.5,0-0.9,0-1.4c0-0.2,0-0.2-0.2-0.2c-1.2,0-2.5,0-3.7,0c0-0.1-0.1-0.1-0.2-0.2c0-0.5,0-1.1,0-1.6
		c0-0.2-0.1-0.3-0.3-0.3c-1.1,0-2.3,0-3.4,0C35.6,5.3,35.6,5.3,35.6,5.2z"/>
	<path class="st3" d="M45.7,9.1c0.5,0,0.9,0,1.4,0c0.2,0,0.3,0.1,0.2,0.3c0,0.5,0,1.1,0,1.6c0,0,0,0,0,0c-0.1,0-0.1,0-0.2,0
		c0,0,0,0,0,0c0-0.5,0-0.9,0-1.4c0-0.2-0.1-0.2-0.2-0.2c-0.4,0-0.8,0-1.2,0C45.7,9.2,45.7,9.1,45.7,9.1z"/>
	<path class="st3" d="M19.7,10.9c0-0.5,0-1.1,0-1.6c0-0.2,0-0.3,0.2-0.3c0.5,0,0.9,0,1.4,0c0,0.1,0,0.1,0,0.2c-0.4,0-0.8,0-1.2,0
		c-0.2,0-0.2,0-0.2,0.2c0,0.5,0,0.9,0,1.4l0,0C19.8,10.9,19.7,10.9,19.7,10.9L19.7,10.9z"/>
	<path class="st3" d="M49.6,11.1c-0.8,0-1.5,0-2.3,0c0,0,0,0,0,0c0-0.1,0-0.1,0-0.2c0,0,0,0,0,0c0.8,0,1.5,0,2.3,0c0,0,0,0,0,0
		C49.6,11,49.6,11.1,49.6,11.1z"/>
	<path class="st3" d="M19.7,11.1c-0.8,0-1.5,0-2.3,0c0-0.1,0-0.2,0-0.2c0,0,0,0,0,0c0.8,0,1.5,0,2.3,0c0,0,0,0,0,0
		C19.7,11,19.7,11,19.7,11.1L19.7,11.1z"/>
	<path class="st3" d="M33.6,5.2c0.5,0,1.1,0,1.6,0c0,0.1,0,0.1,0,0.2c-0.5,0-1.1,0-1.6,0C33.6,5.3,33.6,5.3,33.6,5.2z"/>
	<path class="st3" d="M31.8,5.2c0.5,0,1.1,0,1.6,0c0,0.1,0,0.1,0,0.2c-0.5,0-1.1,0-1.6,0C31.8,5.3,31.8,5.3,31.8,5.2z"/>
	<path class="st4" d="M49.8,10.9c-0.1,0-0.2,0-0.2,0c0,0,0,0,0,0c0-0.1,0-0.2,0-0.3c0-0.2,0.1-0.2,0.2-0.2c0,0.1,0,0.2,0,0.2
		C49.8,10.7,49.8,10.8,49.8,10.9z"/>
	<path class="st4" d="M17.2,10.4c0.2,0,0.3,0,0.2,0.2c0,0.1,0,0.2,0,0.3c0,0,0,0,0,0c-0.1,0-0.2,0-0.2,0c0-0.1,0-0.2,0-0.2
		C17.2,10.6,17.2,10.5,17.2,10.4z"/>
	<path class="st5" d="M45.7,9.1c0,0.1,0,0.1,0,0.2c-0.2,0-0.3,0-0.5,0c0-0.1,0-0.1,0-0.2C45.4,9.1,45.5,9.1,45.7,9.1z"/>
	<path class="st5" d="M21.3,9.3c0-0.1,0-0.1,0-0.2c0.2,0,0.3,0,0.5,0c0,0.1,0,0.1,0,0.2C21.6,9.3,21.4,9.3,21.3,9.3z"/>
	<path class="st5" d="M35.2,5.4c0-0.1,0-0.1,0-0.2c0.1,0,0.3,0,0.4,0c0,0.1,0,0.2,0,0.2C35.5,5.4,35.3,5.4,35.2,5.4z"/>
	<path class="st5" d="M31.8,5.2c0,0.1,0,0.1,0,0.2c-0.1,0-0.3,0-0.4,0c0-0.1,0-0.2,0-0.2C31.5,5.2,31.6,5.2,31.8,5.2z"/>
	<path class="st6" d="M49.8,10.9c0-0.1,0-0.2,0-0.2c0.1,0,0.2,0,0.2,0C50.1,10.9,50,10.9,49.8,10.9z"/>
	<path class="st6" d="M17.2,10.7c0,0.1,0,0.2,0,0.2c-0.2,0-0.3,0-0.2-0.2C17,10.7,17.1,10.7,17.2,10.7z"/>
	<path class="st7" d="M50,10.7c-0.1,0-0.2,0-0.2,0c0-0.1,0-0.2,0-0.2C50,10.4,50.1,10.5,50,10.7z"/>
	<path class="st7" d="M17.2,10.7c-0.1,0-0.2,0-0.2,0c0-0.2,0-0.3,0.2-0.2C17.2,10.5,17.2,10.6,17.2,10.7z"/>
	<path class="st2" d="M33.4,5.4c0-0.1,0-0.1,0-0.2c0.1,0,0.2,0,0.2,0c0,0.1,0,0.1,0,0.2C33.5,5.4,33.4,5.4,33.4,5.4z"/>
	<path class="st8" d="M47.3,38.4c-0.5,0-1,0-1.5,0c-0.3,0-0.4,0.1-0.4,0.4c0,0.5,0,1,0,1.5c0,0.2-0.1,0.3-0.3,0.3
		c-0.5,0-0.9,0-1.4,0c-0.2,0-0.2,0-0.2,0.2c0,0.4,0,0.9,0,1.3c0,0.2,0,0.3-0.3,0.3c-0.6,0-1.2,0-1.8,0c-0.2,0-0.2,0-0.2,0.2
		c0,1.5,0,3.1,0,4.6c0,1.2,0,2.4,0,3.6c0,0,0,0,0,0c-0.6,0-1.2,0-1.8,0c0-1.7,0-3.4,0-5.1c0-1.6,0-3.3,0-4.9c0-0.3-0.1-0.3-0.3-0.3
		c-0.3,0-0.6,0-0.8,0c-0.6,0-0.6,0-0.6,0.6c0,2.6,0,5.2,0,7.8c-0.7,0-1.5,0-2.2,0l0,0c0-2.7,0-5.5,0-8.2c0-0.2-0.1-0.2-0.2-0.2
		c-0.5,0-1,0-1.4,0c-0.2,0-0.2,0.1-0.2,0.2c0,2.7,0,5.5,0,8.2c0,0.6,0,1.2,0,1.8c-0.1,0-0.1,0-0.2,0c0-0.6,0-1.2,0-1.8
		c0-2.7,0-5.5,0-8.2c0-0.2-0.1-0.2-0.2-0.2c-0.4,0-0.8,0-1.2,0c-0.3,0-0.4,0.1-0.4,0.4c0,1.7,0,3.4,0,5.2c0,1,0,1.9,0,2.9
		c0,0,0,0,0,0c-0.7,0-1.5,0-2.2,0c0-0.1,0-0.3,0-0.4c0-2.6,0-5.1,0-7.7c0-0.3-0.1-0.4-0.4-0.4c-0.4,0-0.7,0-1.1,0
		c-0.3,0-0.3,0.1-0.3,0.3c0,3.2,0,6.4,0,9.5c0,0.1,0,0.3,0,0.4c-0.6,0-1.2,0-1.8,0c0,0,0,0,0,0c0-1.2,0-2.4,0-3.6c0-1.5,0-3.1,0-4.6
		c0-0.2-0.1-0.2-0.2-0.2c-0.6,0-1.2,0-1.8,0c-0.2,0-0.3-0.1-0.3-0.3c0-0.4,0-0.9,0-1.3c0-0.2,0-0.2-0.2-0.2c-0.5,0-0.9,0-1.4,0
		c-0.2,0-0.3,0-0.3-0.3c0-0.5,0-1,0-1.5c0-0.3-0.1-0.3-0.3-0.3c-0.5,0-1,0-1.5,0c0,0,0,0,0,0c0-0.6,0-1.2,0-1.8c1.1,0,2.3,0,3.4,0
		c0.2,0,0.3-0.1,0.3-0.3c0-0.5,0-1,0-1.6c0-1,0-2,0-3c0.7,0,1.3,0,2,0c0.2,0,0.3-0.1,0.3-0.3c0-1.2,0-2.4,0-3.5c0.5,0,1.1,0,1.6,0
		c0.2,0,0.2,0,0.2-0.2c0-0.5,0-1.1,0-1.6c0.5,0,1,0,1.5,0c0.2,0,0.3-0.1,0.3-0.3c0-3.4,0-6.8,0-10.2c0-1.5,0-3,0-4.4
		c0-0.2,0-0.3,0.3-0.3c2.6,0,5.2,0,7.8,0c0.3,0,0.3,0.1,0.3,0.3c0,1.5,0,3,0,4.4c0,3.4,0,6.8,0,10.2c0,0.2,0,0.3,0.3,0.3
		c0.5,0,1,0,1.5,0c0,0.5,0,1.1,0,1.6c0,0.2,0,0.2,0.2,0.2c0.5,0,1.1,0,1.6,0c0,1.2,0,2.4,0,3.6c0,0.2,0,0.3,0.2,0.2c0.7,0,1.3,0,2,0
		c0,1,0,2,0,3c0,0.5,0,1,0,1.5c0,0.3,0.1,0.3,0.3,0.3c1.1,0,2.3,0,3.4,0C47.3,37.2,47.3,37.8,47.3,38.4L47.3,38.4z M35.4,36.6
		C35.4,36.6,35.5,36.6,35.4,36.6c0-0.6,0-1.2,0-1.8c0-1.5,0-3,0-4.5c0-0.2,0-0.3-0.3-0.3c-1.1,0-2.2,0-3.4,0c-0.3,0-0.3,0.1-0.3,0.3
		c0,1.5,0,3,0,4.5c0,0.6,0,1.2,0,1.8l0,0c-0.7,0-1.4,0-2,0c-0.2,0-0.2,0-0.2,0.2c0,0.4,0,0.9,0,1.3c0,0.2,0,0.2,0.2,0.2
		c0.7,0,1.4,0,2.1,0c1.3,0,2.6,0,3.9,0c0.7,0,1.4,0,2.1,0c0.2,0,0.2-0.1,0.2-0.2c0-0.4,0-0.9,0-1.3c0-0.2-0.1-0.3-0.3-0.3
		C36.8,36.6,36.1,36.6,35.4,36.6z"/>
	<path class="st9" d="M37.7,15.7c0-1.5,0-3,0-4.4c0-0.2,0-0.3-0.3-0.3c-2.6,0-5.2,0-7.8,0c-0.3,0-0.3,0.1-0.3,0.3c0,1.5,0,3,0,4.4
		c-2.5,0-5,0-7.5,0c-0.2,0-0.2,0.1-0.2,0.2c0,0.5,0,1.1,0,1.6c0,0.2,0,0.3-0.2,0.2c-0.5,0-0.9,0-1.4,0c-0.2,0-0.2,0.1-0.2,0.2
		c0,1.1,0,2.3,0,3.4c-1.3,0-2.5,0-3.8,0c-0.2,0-0.3,0.1-0.3,0.3c0,1.1,0,2.2,0,3.3c0,3.2,0,6.4,0,9.6c0,0.2,0,0.3,0.2,0.3
		c2.5,0,5,0,7.5,0c0,0.5,0,1.1,0,1.6c0,0.2-0.1,0.3-0.3,0.3c-1.1,0-2.3,0-3.4,0c-1.3,0-2.7,0-4,0c-1.7,0-3.4,0-5.1,0
		c0-0.5,0-1.1,0-1.6c0-0.2,0.1-0.2,0.2-0.2c0.9,0,1.8,0,2.7,0c0.2,0,0.3,0,0.3-0.3c0-5.6,0-11.2,0-16.8c0.5,0,1.1,0,1.6,0
		c0.2,0,0.2,0,0.2-0.2c0-0.6,0-1.3,0-1.9c0.5,0,1.1,0,1.6,0c0.2,0,0.2,0,0.2-0.2c0-0.8,0-1.7,0-2.5c0.7,0,1.3,0,2,0
		c0.2,0,0.3,0,0.3-0.2c0-0.5,0-1,0-1.5c0,0,0,0,0,0c0.2,0,0.3,0,0.2-0.2c0,0,0,0,0,0c1.1,0,2.2,0,3.2,0c0.2,0,0.2,0,0.2-0.2
		c0-0.5,0-0.9,0-1.4c0.1-0.1,0.1-0.2,0.2-0.2c1.2,0,2.5,0,3.7,0c0.2,0,0.2,0,0.2-0.2c0-0.5,0-0.9,0-1.4c0.1-0.1,0.1-0.1,0.2-0.2
		c3.9,0,7.8,0,11.7,0c0,0.1,0.2,0.1,0.2,0.2c0,0.5,0,0.9,0,1.4c0,0.2,0,0.2,0.2,0.2c1.2,0,2.5,0,3.7,0c0.1,0.1,0.1,0.2,0.2,0.2
		c0,0.5,0,0.9,0,1.4c0,0.2,0.1,0.2,0.2,0.2c1.1,0,2.2,0,3.2,0c0,0,0,0,0,0c0,0.2,0,0.3,0.2,0.2c0,0,0,0,0,0c0,0.5,0,1,0,1.6
		c0,0.2,0.1,0.2,0.2,0.2c0.7,0,1.4,0,2,0c0,0.8,0,1.7,0,2.5c0,0.2,0.1,0.3,0.2,0.2c0.5,0,1,0,1.5,0c0,0.6,0,1.3,0,1.9
		c0,0.2,0,0.2,0.2,0.2c0.5,0,1.1,0,1.6,0c0,5.6,0,11.2,0,16.8c0,0.2,0.1,0.3,0.3,0.3c0.9,0,1.8,0,2.7,0c0.2,0,0.3,0,0.3,0.2
		c0,0.5,0,1.1,0,1.6c-1.7,0-3.4,0-5.1,0c-1.3,0-2.7,0-4,0c-1.1,0-2.3,0-3.4,0c-0.2,0-0.3-0.1-0.3-0.3c0-0.5,0-1,0-1.5
		c2.5,0,5,0,7.5,0c0.2,0,0.2-0.1,0.2-0.3c0-4.3,0-8.6,0-12.9c0-0.2,0-0.3-0.3-0.3c-1.3,0-2.5,0-3.8,0c0-1.1,0-2.3,0-3.4
		c0-0.2,0-0.3-0.2-0.2c-0.5,0-0.9,0-1.4,0c-0.2,0-0.2-0.1-0.2-0.2c0-0.5,0-1.1,0-1.6c0-0.2,0-0.2-0.2-0.2
		C42.7,15.7,40.2,15.7,37.7,15.7z"/>
	<path class="st8" d="M37.7,57.5c-2.8,0-5.6,0-8.4,0c0-0.6,0-1.2,0-1.8c0-0.2-0.1-0.3-0.3-0.2c-0.5,0-1,0-1.5,0c0,0,0,0,0,0
		c0-0.9,0-1.8,0-2.7c0,0,0,0,0,0c0.5,0,1.1,0,1.6,0c0.1,0,0.2,0,0.2-0.2c0-0.6,0-1.2,0-1.8l0,0c0.7,0,1.5,0,2.2,0c0,0.6,0,1.2,0,1.8
		c0,0.2,0,0.3,0.2,0.3c0.5,0,1.1,0,1.6,0c0.1,0,0.2,0,0.2,0c0.5,0,1.1,0,1.6,0c0.2,0,0.2-0.1,0.2-0.3c0-0.6,0-1.2,0-1.8
		c0.7,0,1.5,0,2.2,0l0,0c0,0.6,0,1.2,0,1.8c0,0.2,0.1,0.2,0.2,0.2c0.5,0,1.1,0,1.6,0c0,0,0,0,0,0c0,0.9,0,1.8,0,2.7c0,0,0,0,0,0
		c-0.5,0-1,0-1.5,0c-0.2,0-0.3,0.1-0.3,0.2C37.7,56.4,37.7,56.9,37.7,57.5z"/>
	<path class="st8" d="M51.3,36.6c1.7,0,3.4,0,5.1,0c0,1.2,0,2.5,0,3.7c0,0.2-0.1,0.2-0.2,0.2c-1,0-2,0-3,0c0-0.6,0-1.2,0-1.8
		c0-0.2-0.1-0.3-0.3-0.2c-0.5,0-1.1,0-1.6,0C51.3,37.8,51.3,37.2,51.3,36.6z"/>
	<path class="st8" d="M10.6,36.6c1.7,0,3.4,0,5.1,0c0,0.6,0,1.2,0,1.8c-0.5,0-1.1,0-1.6,0c-0.2,0-0.3,0.1-0.3,0.2c0,0.6,0,1.2,0,1.8
		c-1,0-2,0-3,0c-0.1,0-0.2,0-0.2-0.2C10.5,39.1,10.6,37.9,10.6,36.6z"/>
	<path class="st10" d="M13.8,40.5c0-0.6,0-1.2,0-1.8c0-0.2,0.1-0.3,0.3-0.2c0.5,0,1.1,0,1.6,0c1.4,0,2.7,0,4.1,0c0,0,0,0,0,0
		c0,0.6,0,1.2,0,1.8c0,0.2-0.1,0.3-0.3,0.3C17.5,40.5,15.6,40.5,13.8,40.5z"/>
	<path class="st10" d="M51.4,38.4c0.5,0,1.1,0,1.6,0c0.2,0,0.3,0.1,0.3,0.2c0,0.6,0,1.2,0,1.8c-1.9,0-3.8,0-5.7,0
		c-0.2,0-0.3-0.1-0.3-0.3c0-0.6,0-1.2,0-1.8c0,0,0,0,0,0C48.6,38.4,50,38.4,51.4,38.4z"/>
	<path class="st10" d="M41.4,50.8c0-1.2,0-2.4,0-3.6c0.8,0,1.5,0,2.3,0c0,0.6,0,1.2,0,1.8c0,0.5,0,1,0,1.5c0,0.3-0.1,0.4-0.4,0.4
		C42.6,50.7,42,50.8,41.4,50.8z"/>
	<path class="st10" d="M25.6,47.1c0,1.2,0,2.4,0,3.6c-0.6,0-1.3,0-1.9,0c-0.3,0-0.4-0.1-0.4-0.4c0-0.5,0-1,0-1.5c0-0.6,0-1.2,0-1.8
		C24.1,47.1,24.9,47.1,25.6,47.1z"/>
	<path class="st10" d="M39.5,55.5c0-0.9,0-1.8,0-2.7c0.6,0,1.2,0,1.8,0c0,0.8,0,1.7,0,2.5c0,0.2-0.1,0.3-0.3,0.3
		C40.5,55.5,40,55.5,39.5,55.5z"/>
	<path class="st10" d="M27.5,52.8c0,0.9,0,1.8,0,2.7c-0.5,0-1,0-1.6,0c-0.2,0-0.3,0-0.3-0.3c0-0.8,0-1.7,0-2.5
		C26.2,52.8,26.8,52.8,27.5,52.8z"/>
	<path class="st9" d="M27.5,52.8c-0.6,0-1.2,0-1.8,0c0-0.7,0-1.3,0-2c0.6,0,1.2,0,1.8,0l0,0C27.5,51.4,27.5,52.1,27.5,52.8
		C27.5,52.8,27.5,52.8,27.5,52.8z"/>
	<path class="st9" d="M41.3,52.8c-0.6,0-1.2,0-1.8,0c0,0,0,0,0,0c0-0.7,0-1.4,0-2l0,0c0.6,0,1.2,0,1.8,0
		C41.3,51.4,41.3,52.1,41.3,52.8z"/>
	<path class="st10" d="M27.5,55.5c0.5,0,1,0,1.5,0c0.2,0,0.3,0.1,0.3,0.2c0,0.6,0,1.2,0,1.8c-0.5,0-1,0-1.5,0
		c-0.2,0-0.3-0.1-0.3-0.3C27.5,56.7,27.5,56.1,27.5,55.5z"/>
	<path class="st10" d="M37.7,57.5c0-0.6,0-1.2,0-1.8c0-0.2,0.1-0.3,0.3-0.2c0.5,0,1,0,1.5,0c0,0.6,0,1.2,0,1.8
		c0,0.2-0.1,0.3-0.3,0.3C38.7,57.5,38.2,57.5,37.7,57.5z"/>
	<path class="st8" d="M23.3,47.1c0,0.6,0,1.2,0,1.8c-0.5,0-1.1,0-1.6,0c-0.2,0-0.2,0-0.2-0.2c0-0.5,0-0.9,0-1.4
		c0-0.2,0.1-0.2,0.2-0.2C22.3,47.1,22.8,47.1,23.3,47.1z"/>
	<path class="st8" d="M43.6,48.9c0-0.6,0-1.2,0-1.8c0.5,0,1.1,0,1.6,0c0.2,0,0.2,0,0.2,0.2c0,0.5,0,0.9,0,1.4c0,0.2-0.1,0.2-0.2,0.2
		C44.7,48.9,44.2,48.9,43.6,48.9z"/>
	<path class="st1" d="M39.3,7.3c-3.9,0-7.8,0-11.7,0c0-0.5,0-1.1,0-1.6c0-0.2,0.1-0.3,0.3-0.3c1.1,0,2.3,0,3.4,0c0.1,0,0.3,0,0.4,0
		c0.5,0,1.1,0,1.6,0c0.1,0,0.2,0,0.2,0c0.5,0,1.1,0,1.6,0c0.1,0,0.3,0,0.4,0c1.1,0,2.3,0,3.4,0c0.2,0,0.3,0,0.3,0.3
		C39.3,6.2,39.3,6.7,39.3,7.3z"/>
	<path class="st1" d="M27.5,7.4c0,0.5,0,0.9,0,1.4c0,0.2-0.1,0.2-0.2,0.2c-1.2,0-2.5,0-3.7,0c0-0.5,0-0.9,0-1.4
		c0-0.2,0.1-0.2,0.3-0.2C25,7.5,26.2,7.4,27.5,7.4z"/>
	<path class="st1" d="M23.3,9.3c0,0.5,0,0.9,0,1.4c0,0.2,0,0.2-0.2,0.2c-1.1,0-2.2,0-3.2,0c0-0.5,0-0.9,0-1.4c0-0.2,0.1-0.2,0.2-0.2
		c0.4,0,0.8,0,1.2,0c0.2,0,0.3,0,0.5,0C22.3,9.3,22.8,9.3,23.3,9.3z"/>
	<path class="st1" d="M43.4,9.1c-1.2,0-2.5,0-3.7,0c-0.2,0-0.2-0.1-0.2-0.2c0-0.5,0-0.9,0-1.4c1.2,0,2.5,0,3.7,0
		c0.2,0,0.2,0.1,0.2,0.2C43.4,8.1,43.4,8.6,43.4,9.1z"/>
	<path class="st1" d="M47.1,10.9c-1.1,0-2.2,0-3.2,0c-0.2,0-0.2,0-0.2-0.2c0-0.5,0-0.9,0-1.4c0.5,0,1.1,0,1.6,0c0.2,0,0.3,0,0.5,0
		c0.4,0,0.8,0,1.2,0c0.2,0,0.2,0,0.2,0.2C47.1,10,47.1,10.4,47.1,10.9z"/>
	<path class="st11" d="M47.3,11.1c-0.2,0-0.3,0-0.2-0.2c0.1,0,0.1,0,0.2,0C47.3,11,47.3,11,47.3,11.1z"/>
	<path class="st11" d="M19.9,10.9c0,0.2,0,0.3-0.2,0.2c0-0.1,0-0.1,0-0.2C19.7,10.9,19.8,10.9,19.9,10.9z"/>
	<path class="st1" d="M23.4,34.8c-2.5,0-5,0-7.5,0c-0.2,0-0.2-0.1-0.2-0.3c0-3.2,0-6.4,0-9.6c0-1.1,0-2.2,0-3.3c0-0.2,0-0.3,0.3-0.3
		c1.3,0,2.5,0,3.8,0c0,0,0,0,0,0c0,0.6,0,1.2,0,1.8c0,0.2-0.1,0.3-0.3,0.3c-0.6,0-1.1,0-1.7,0c-0.3,0-0.3,0.1-0.3,0.3
		c0,2.6,0,5.2,0,7.8c0,0.3,0.1,0.3,0.3,0.3c1.9,0,3.8,0,5.6,0l0,0C23.4,32.8,23.4,33.8,23.4,34.8z"/>
	<path class="st1" d="M47.3,21.4c1.3,0,2.5,0,3.8,0c0.2,0,0.3,0.1,0.3,0.3c0,4.3,0,8.6,0,12.9c0,0.2,0,0.3-0.2,0.3c-2.5,0-5,0-7.5,0
		c0-1,0-2,0-3l0,0c1.9,0,3.8,0,5.7,0c0.2,0,0.3,0,0.3-0.3c0-2.6,0-5.3,0-7.9c0-0.2-0.1-0.3-0.3-0.3c-0.6,0-1.2,0-1.7,0
		c-0.2,0-0.3-0.1-0.3-0.3C47.3,22.6,47.3,22,47.3,21.4L47.3,21.4z"/>
	<path class="st1" d="M19.7,21.4c0-1.1,0-2.3,0-3.4c0-0.2,0-0.3,0.2-0.2c0.5,0,0.9,0,1.4,0c0.2,0,0.2-0.1,0.2-0.2c0-0.5,0-1.1,0-1.6
		c0-0.2,0-0.2,0.2-0.2c2.5,0,5,0,7.5,0c0,3.4,0,6.8,0,10.2c0,0.2,0,0.3-0.3,0.3c-0.5,0-1,0-1.5,0c0,0,0,0,0,0c0-0.9,0-1.8,0-2.7
		c0-1.8,0-3.6,0-5.4c0-0.2-0.1-0.3-0.3-0.3c-1.2,0-2.4,0-3.6,0c-0.2,0-0.2,0.1-0.2,0.2c0,0.4,0,0.8,0,1.2c0,0.3-0.1,0.4-0.4,0.3
		c-0.4,0-0.8,0-1.2,0c-0.2,0-0.3,0.1-0.3,0.3c0,0.4,0,0.9,0,1.3c0,0.2-0.1,0.3-0.3,0.3C20.7,21.4,20.2,21.4,19.7,21.4
		C19.7,21.4,19.7,21.4,19.7,21.4z"/>
	<path class="st1" d="M37.7,15.7c2.5,0,5,0,7.5,0c0.2,0,0.2,0.1,0.2,0.2c0,0.5,0,1.1,0,1.6c0,0.2,0,0.3,0.2,0.2c0.5,0,0.9,0,1.4,0
		c0.2,0,0.2,0.1,0.2,0.2c0,1.1,0,2.3,0,3.4c0,0,0,0,0,0c-0.5,0-1,0-1.5,0c-0.2,0-0.3,0-0.3-0.3c0-0.4,0-0.9,0-1.3
		c0-0.2-0.1-0.3-0.3-0.3c-0.4,0-0.8,0-1.2,0c-0.3,0-0.4-0.1-0.4-0.3c0-0.4,0-0.8,0-1.2c0-0.2-0.1-0.2-0.2-0.2c-1.2,0-2.4,0-3.6,0
		c-0.2,0-0.3,0.1-0.3,0.3c0,1.8,0,3.6,0,5.4c0,0.9,0,1.8,0,2.7l0,0c-0.5,0-1,0-1.5,0c-0.2,0-0.3-0.1-0.3-0.3
		C37.7,22.5,37.7,19.1,37.7,15.7z"/>
	<path class="st9" d="M31.5,34.8c0-1.5,0-3,0-4.5c0-0.2,0-0.3,0.3-0.3c1.1,0,2.2,0,3.4,0c0.3,0,0.3,0.1,0.3,0.3c0,1.5,0,3,0,4.5
		C34.1,34.8,32.8,34.8,31.5,34.8z"/>
	<path class="st10" d="M37.7,48.9c0-2.6,0-5.2,0-7.8c0-0.6,0-0.6,0.6-0.6c0.3,0,0.6,0,0.8,0c0.2,0,0.3,0.1,0.3,0.3
		c0,1.6,0,3.3,0,4.9c0,1.7,0,3.4,0,5.1c0,0,0,0,0,0c-0.6,0-1.2,0-1.8,0l0,0C37.7,50.1,37.7,49.5,37.7,48.9z"/>
	<path class="st10" d="M27.4,50.8c0-0.1,0-0.3,0-0.4c0-3.2,0-6.4,0-9.5c0-0.3,0.1-0.4,0.3-0.3c0.4,0,0.7,0,1.1,0
		c0.3,0,0.4,0.1,0.4,0.4c0,2.6,0,5.1,0,7.7c0,0.1,0,0.3,0,0.4c0,0.6,0,1.2,0,1.8c0,0,0,0,0,0C28.6,50.8,28.1,50.8,27.4,50.8
		C27.5,50.8,27.4,50.8,27.4,50.8z"/>
	<path class="st10" d="M33.6,48.9c0-2.7,0-5.5,0-8.2c0-0.2,0-0.2,0.2-0.2c0.5,0,1,0,1.4,0c0.1,0,0.2,0,0.2,0.2c0,2.7,0,5.5,0,8.2
		C34.8,48.9,34.2,48.9,33.6,48.9z"/>
	<path class="st10" d="M31.5,48.9c0-1,0-1.9,0-2.9c0-1.7,0-3.4,0-5.2c0-0.3,0.1-0.4,0.4-0.4c0.4,0,0.8,0,1.2,0c0.2,0,0.2,0,0.2,0.2
		c0,2.7,0,5.5,0,8.2C32.7,48.9,32.1,48.9,31.5,48.9z"/>
	<path class="st1" d="M25.6,28c0,1.2,0,2.4,0,3.5c0,0.2-0.1,0.3-0.3,0.3c-0.7,0-1.3,0-2,0c0,0,0,0,0,0c0-1.2,0-2.4,0-3.5
		c0-0.2,0.1-0.3,0.3-0.3C24.3,28,25,28,25.6,28L25.6,28z"/>
	<path class="st1" d="M43.6,31.8c-0.7,0-1.3,0-2,0c-0.2,0-0.2-0.1-0.2-0.2c0-1.2,0-2.4,0-3.6l0,0c0.7,0,1.3,0,2,0
		c0.2,0,0.3,0.1,0.3,0.3C43.6,29.5,43.6,30.6,43.6,31.8L43.6,31.8z"/>
	<path class="st1" d="M31.5,34.8c1.3,0,2.6,0,3.9,0c0,0.6,0,1.2,0,1.8c-1.3,0-2.6,0-3.9,0C31.5,36,31.5,35.4,31.5,34.8z"/>
	<path class="st1" d="M19.7,38.4c-1.4,0-2.7,0-4.1,0c0-0.6,0-1.2,0-1.8c1.3,0,2.7,0,4,0C19.7,37.2,19.7,37.8,19.7,38.4z"/>
	<path class="st1" d="M51.4,38.4c-1.4,0-2.7,0-4.1,0c0-0.6,0-1.2,0-1.8c1.3,0,2.7,0,4,0C51.3,37.2,51.3,37.8,51.4,38.4z"/>
	<path class="st1" d="M33.6,48.9c0.6,0,1.2,0,1.8,0c0,0,0,0,0,0c0,0.6,0,1.2,0,1.8c0,0.6,0,1.2,0,1.8c0,0.2,0,0.3-0.2,0.3
		c-0.5,0-1.1,0-1.6,0c0-0.7,0-1.3,0-2C33.6,50.1,33.6,49.5,33.6,48.9z"/>
	<path class="st1" d="M31.5,48.9c0.6,0,1.2,0,1.8,0c0,0.6,0,1.2,0,1.8c0,0.7,0,1.3,0,2c-0.5,0-1.1,0-1.6,0c-0.2,0-0.2-0.1-0.2-0.3
		c0-0.6,0-1.2,0-1.8C31.5,50.1,31.5,49.5,31.5,48.9L31.5,48.9z"/>
	<path class="st10" d="M31.5,36.6c1.3,0,2.6,0,3.9,0c0,0,0,0,0,0c0,0.6,0,1.2,0,1.8c-1.3,0-2.6,0-3.9,0
		C31.5,37.8,31.5,37.2,31.5,36.6L31.5,36.6z"/>
	<path class="st9" d="M35.5,50.8c0-0.6,0-1.2,0-1.8c0.7,0,1.5,0,2.2,0c0,0.6,0,1.2,0,1.8C36.9,50.8,36.2,50.8,35.5,50.8z"/>
	<path class="st9" d="M31.5,48.9c0,0.6,0,1.2,0,1.8c-0.7,0-1.5,0-2.2,0c0-0.6,0-1.2,0-1.8C30,48.9,30.8,48.9,31.5,48.9z"/>
	<path class="st1" d="M31.5,36.6c0,0.6,0,1.2,0,1.8c-0.7,0-1.4,0-2.1,0c-0.2,0-0.2-0.1-0.2-0.2c0-0.4,0-0.9,0-1.3
		c0-0.2,0.1-0.2,0.2-0.2C30.2,36.6,30.8,36.6,31.5,36.6z"/>
	<path class="st1" d="M35.4,38.4c0-0.6,0-1.2,0-1.8c0.7,0,1.3,0,2,0c0.2,0,0.3,0,0.3,0.3c0,0.4,0,0.9,0,1.3c0,0.2,0,0.2-0.2,0.2
		C36.8,38.4,36.1,38.4,35.4,38.4z"/>
	<path class="st1" d="M41.3,28c-0.5,0-1.1,0-1.6,0c-0.2,0-0.2,0-0.2-0.2c0-0.5,0-1.1,0-1.6c0,0,0,0,0,0c0.6,0,1.2,0,1.8,0
		C41.3,26.8,41.3,27.4,41.3,28C41.3,28,41.3,28,41.3,28z"/>
	<path class="st1" d="M27.5,26.1c0,0.5,0,1.1,0,1.6c0,0.2,0,0.2-0.2,0.2c-0.5,0-1.1,0-1.6,0c0,0,0,0,0,0c0-0.6,0-1.2,0-1.9
		C26.2,26.1,26.8,26.2,27.5,26.1L27.5,26.1z"/>
	<path class="st9" d="M33.4,52.8c0-0.7,0-1.3,0-2c0.1,0,0.1,0,0.2,0c0,0.7,0,1.3,0,2C33.5,52.8,33.4,52.8,33.4,52.8z"/>
	<path class="st1" d="M27.5,50.8c0.6,0,1.2,0,1.8,0c0,0.6,0,1.2,0,1.8c0,0.2-0.1,0.2-0.2,0.2c-0.5,0-1.1,0-1.6,0
		C27.5,52.1,27.5,51.4,27.5,50.8z"/>
	<path class="st1" d="M37.7,50.8c0.6,0,1.2,0,1.8,0c0,0.7,0,1.4,0,2c-0.5,0-1.1,0-1.6,0c-0.1,0-0.2,0-0.2-0.2
		C37.7,52,37.7,51.4,37.7,50.8z"/>
	<path class="st10" d="M25.6,26.1c0,0.6,0,1.2,0,1.9c-0.7,0-1.3,0-2,0c-0.2,0-0.3,0.1-0.3,0.3c0,1.2,0,2.4,0,3.5c-1.9,0-3.8,0-5.6,0
		c-0.2,0-0.3,0-0.3-0.3c0-2.6,0-5.2,0-7.8c0-0.2,0.1-0.3,0.3-0.3c0.6,0,1.1,0,1.7,0c0.2,0,0.3-0.1,0.3-0.3c0-0.6,0-1.2,0-1.8
		c0.5,0,1,0,1.5,0c0.2,0,0.3,0,0.3-0.3c0-0.4,0-0.9,0-1.3c0-0.2,0.1-0.3,0.3-0.3c0.4,0,0.8,0,1.2,0c0.3,0,0.4-0.1,0.4-0.3
		c0-0.4,0-0.8,0-1.2c0-0.2,0.1-0.2,0.2-0.2c1.2,0,2.4,0,3.6,0c0.2,0,0.3,0.1,0.3,0.3c0,1.8,0,3.6,0,5.4c-0.5,0-1.1,0-1.6,0
		c-0.2,0-0.2,0.1-0.2,0.2C25.6,24.5,25.6,25.3,25.6,26.1z"/>
	<path class="st10" d="M41.3,28c0-0.6,0-1.2,0-1.9c0-0.8,0-1.7,0-2.5c0-0.2,0-0.2-0.2-0.2c-0.5,0-1.1,0-1.6,0c0-1.8,0-3.6,0-5.4
		c0-0.2,0.1-0.3,0.3-0.3c1.2,0,2.4,0,3.6,0c0.2,0,0.2,0.1,0.2,0.2c0,0.4,0,0.8,0,1.2c0,0.3,0.1,0.4,0.4,0.3c0.4,0,0.8,0,1.2,0
		c0.2,0,0.3,0.1,0.3,0.3c0,0.4,0,0.9,0,1.3c0,0.2,0.1,0.3,0.3,0.3c0.5,0,1,0,1.5,0c0,0.6,0,1.2,0,1.8c0,0.2,0.1,0.3,0.3,0.3
		c0.6,0,1.2,0,1.7,0c0.2,0,0.3,0,0.3,0.3c0,2.6,0,5.3,0,7.9c0,0.3-0.1,0.3-0.3,0.3c-1.9,0-3.8,0-5.7,0c0-1.2,0-2.4,0-3.5
		c0-0.2-0.1-0.3-0.3-0.3C42.7,28,42,28,41.3,28z"/>
	<path class="st0" d="M25.6,26.1c0-0.8,0-1.7,0-2.5c0-0.2,0-0.3,0.2-0.2c0.5,0,1.1,0,1.6,0c0,0.9,0,1.8,0,2.7
		C26.8,26.2,26.2,26.1,25.6,26.1z"/>
	<path class="st0" d="M39.5,23.4c0.5,0,1.1,0,1.6,0c0.2,0,0.2,0,0.2,0.2c0,0.8,0,1.7,0,2.5c-0.6,0-1.2,0-1.8,0
		C39.5,25.2,39.5,24.3,39.5,23.4z"/>
</g>
</svg>
